<?xml version="1.0" standalone="no"?>
<!DOCTYPE svg PUBLIC "-//W3C//DTD SVG 20010904//EN" "http://www.w3.org/TR/2001/REC-SVG-20010904/DTD/svg10.dtd">
<svg version="1.0" xmlns="http://www.w3.org/2000/svg" viewBox="0 0 600.000000 533.000000" preserveAspectRatio="xMidYMid meet">
    <g transform="translate(0.000000,533.000000) scale(0.100000,-0.100000)" fill="#000000" stroke="none">
        <path d="M0 2665 l0 -2665 3000 0 3000 0 0 2665 0 2665 -3000 0 -3000 0 0
        -2665z m2020 1890 c0 -3 -11 -22 -23 -43 -44 -70 -234 -417 -271 -496 -141
        -299 -228 -599 -283 -976 -23 -158 -26 -672 -5 -815 77 -519 231 -955 505
        -1430 l75 -130 -125 -3 c-85 -2 -130 1 -139 9 -24 19 -167 227 -234 339 -430
        714 -571 1442 -421 2178 85 411 310 890 613 1305 l50 67 129 0 c71 0 129 -2
        129 -5z m2218 -92 c333 -470 533 -924 612 -1389 72 -426 37 -902 -98 -1319
        -104 -321 -313 -726 -519 -1010 l-63 -85 -130 0 c-71 0 -130 3 -130 6 0 3 8
        18 19 32 10 15 53 90 96 167 454 814 589 1626 409 2459 -78 361 -196 651 -428
        1059 -53 92 -96 169 -96 172 0 3 58 5 130 5 l129 0 69 -97z"/>
    </g>
</svg>
